<svg id="svg" version="1.1" xmlns="http://www.w3.org/2000/svg" xmlns:xlink="http://www.w3.org/1999/xlink" width="400" height="400" viewBox="0, 0, 400,400"><g id="svgg"><path id="path0" d="M0.000 200.000 L 0.000 400.000 200.000 400.000 L 400.000 400.000 400.000 200.000 L 400.000 0.000 200.000 0.000 L 0.000 0.000 0.000 200.000 M392.714 7.100 C 393.516 7.798,393.518 8.212,393.773 200.086 L 394.028 392.372 393.214 393.186 L 392.400 394.000 200.244 394.000 C 11.597 394.000,8.071 393.986,7.144 393.235 C 6.202 392.471,6.200 392.453,6.238 383.735 C 6.258 378.931,6.303 292.425,6.338 191.500 C 6.400 8.575,6.403 7.997,7.200 7.200 C 8.378 6.022,391.364 5.923,392.714 7.100 M194.400 25.579 C 191.726 25.963,183.645 28.640,182.766 29.433 C 182.417 29.747,181.032 30.537,179.689 31.188 C 174.334 33.782,167.591 40.358,165.652 44.877 C 165.246 45.825,164.459 47.268,163.905 48.085 C 163.334 48.925,162.676 50.749,162.389 52.285 C 162.110 53.778,161.639 55.698,161.341 56.550 C 160.522 58.896,160.689 63.748,161.771 69.045 C 162.986 74.993,162.987 74.995,164.636 75.968 C 165.693 76.592,166.000 77.036,166.000 77.942 C 166.000 79.397,167.348 81.192,167.977 80.575 C 168.614 79.950,168.050 77.759,166.973 76.682 C 163.576 73.285,165.508 55.057,169.801 50.000 C 170.268 49.450,171.348 48.059,172.201 46.908 C 175.942 41.862,183.001 37.552,191.800 34.941 C 195.545 33.830,204.597 34.363,207.470 35.863 C 208.752 36.532,210.520 37.309,211.400 37.590 C 216.730 39.289,223.803 47.358,225.547 53.727 C 225.980 55.307,226.632 57.590,226.997 58.800 C 227.873 61.709,227.594 68.044,226.441 71.421 C 225.994 72.729,225.436 74.677,225.201 75.749 C 224.791 77.621,222.121 82.494,220.133 85.000 C 216.789 89.212,213.630 92.657,211.853 94.029 C 210.724 94.901,208.810 96.424,207.600 97.413 C 206.390 98.402,204.590 99.667,203.600 100.223 C 202.610 100.779,200.450 102.119,198.800 103.200 C 197.150 104.282,194.810 105.723,193.600 106.403 C 192.390 107.083,190.050 108.438,188.400 109.413 C 186.750 110.388,184.378 111.725,183.129 112.384 C 181.880 113.043,180.742 113.770,180.601 113.999 C 180.459 114.228,179.411 114.882,178.272 115.452 C 177.132 116.022,175.840 116.798,175.400 117.178 C 174.960 117.557,173.790 118.356,172.800 118.954 C 168.604 121.489,161.899 126.672,157.590 130.712 C 152.960 135.053,152.191 134.956,148.555 129.562 C 147.085 127.383,145.744 125.600,145.574 125.600 C 145.404 125.600,144.316 124.790,143.157 123.800 C 141.997 122.810,140.857 122.000,140.624 121.999 C 140.391 121.999,139.141 121.279,137.846 120.399 C 136.551 119.520,135.249 118.800,134.952 118.800 C 134.655 118.800,132.787 118.260,130.800 117.600 C 125.842 115.953,117.917 115.836,113.892 117.351 C 112.503 117.874,110.639 118.425,109.750 118.575 C 108.860 118.725,107.608 119.193,106.966 119.616 C 106.325 120.038,104.781 121.062,103.536 121.892 C 99.163 124.805,95.046 131.188,96.274 133.150 C 96.936 134.208,99.090 134.158,101.608 133.029 C 106.657 130.763,119.847 130.321,125.800 132.219 C 130.155 133.607,134.207 135.253,134.961 135.940 C 135.422 136.362,136.408 137.014,137.150 137.389 C 138.543 138.094,142.773 141.378,143.294 142.159 C 144.250 143.593,143.640 145.189,140.447 149.600 C 136.657 154.839,132.074 163.294,131.248 166.575 C 130.982 167.632,130.320 169.374,129.777 170.445 C 129.235 171.516,128.516 173.699,128.180 175.296 C 127.845 176.893,127.134 179.581,126.602 181.268 C 124.792 187.002,123.764 207.250,124.810 216.555 C 125.758 224.982,126.072 226.997,126.652 228.362 C 126.989 229.153,127.609 231.561,128.032 233.713 C 128.454 235.865,129.229 238.475,129.755 239.513 C 130.281 240.551,131.003 242.390,131.361 243.600 C 132.008 245.792,134.119 250.538,135.631 253.200 C 136.068 253.970,136.943 255.704,137.575 257.053 C 138.207 258.402,138.940 259.639,139.203 259.802 C 139.467 259.965,140.073 260.931,140.551 261.949 C 141.305 263.558,142.618 265.426,147.200 271.409 C 148.859 273.576,151.235 276.433,154.011 279.600 C 160.528 287.034,160.521 287.051,150.600 287.322 C 144.421 287.491,142.419 287.929,141.220 289.376 C 140.900 289.761,139.820 290.482,138.820 290.979 C 135.213 292.769,130.205 295.943,128.534 297.497 C 127.135 298.798,127.752 299.568,131.674 301.421 L 135.000 302.992 141.200 302.996 C 147.342 303.000,147.424 302.988,150.000 301.739 C 151.430 301.046,153.348 300.279,154.263 300.034 C 155.569 299.684,156.769 298.734,159.863 295.595 C 162.028 293.399,164.070 291.602,164.400 291.602 C 165.877 291.605,169.193 294.566,177.000 302.850 C 178.320 304.251,180.030 305.867,180.800 306.440 C 183.401 308.377,199.221 324.472,200.716 326.702 C 201.532 327.919,202.688 329.812,203.284 330.908 C 203.880 332.004,204.623 333.194,204.935 333.551 C 205.577 334.286,208.170 340.378,209.127 343.400 C 209.622 344.962,209.777 347.525,209.837 355.099 C 209.879 360.434,210.017 365.066,210.142 365.393 C 210.733 366.932,212.400 364.594,212.400 362.225 C 212.400 361.490,212.862 359.204,213.426 357.144 C 215.617 349.145,215.650 351.401,213.178 339.725 C 212.750 337.703,212.400 335.718,212.400 335.314 C 212.400 334.909,211.800 333.323,211.066 331.789 C 210.333 330.255,209.602 328.478,209.444 327.841 C 209.285 327.203,208.445 325.505,207.578 324.066 C 206.710 322.628,206.000 321.269,206.000 321.047 C 206.000 320.825,205.561 320.184,205.025 319.622 C 204.488 319.060,203.633 318.026,203.125 317.324 C 201.053 314.465,197.494 310.369,193.631 306.400 C 191.383 304.090,188.893 301.390,188.099 300.400 C 187.304 299.410,186.177 298.150,185.594 297.600 C 184.488 296.557,180.117 291.895,174.516 285.783 C 171.478 282.467,165.077 274.817,160.800 269.390 C 159.810 268.133,158.529 266.542,157.954 265.853 C 157.378 265.164,156.499 263.790,156.000 262.800 C 155.501 261.810,154.577 260.409,153.946 259.686 C 153.316 258.963,152.800 258.223,152.800 258.041 C 152.800 257.859,152.260 257.031,151.601 256.201 C 150.941 255.371,150.210 253.952,149.974 253.046 C 149.739 252.141,149.045 250.680,148.430 249.800 C 147.816 248.920,147.089 247.480,146.815 246.600 C 146.541 245.720,145.888 244.333,145.365 243.518 C 144.841 242.704,144.069 240.814,143.648 239.318 C 143.227 237.823,142.499 235.717,142.029 234.637 C 141.559 233.558,140.825 230.408,140.398 227.637 C 139.970 224.867,139.447 221.880,139.234 221.000 C 137.498 213.823,137.476 203.090,139.178 194.289 C 139.825 190.940,140.477 187.300,140.625 186.200 C 140.774 185.100,141.392 182.850,141.998 181.200 C 142.604 179.550,143.459 177.120,143.898 175.800 C 145.028 172.400,147.577 166.746,148.407 165.800 C 148.794 165.360,149.583 164.010,150.163 162.800 C 150.742 161.590,152.018 159.610,152.999 158.400 C 153.980 157.190,155.393 155.300,156.139 154.200 C 157.505 152.188,168.171 141.371,169.492 140.659 C 169.881 140.449,170.963 139.630,171.895 138.839 C 175.498 135.780,176.724 134.845,180.400 132.350 C 182.490 130.932,184.740 129.396,185.400 128.937 C 188.366 126.873,191.727 124.800,192.108 124.800 C 192.337 124.800,193.081 124.376,193.762 123.858 C 194.443 123.339,195.810 122.504,196.800 122.001 C 197.790 121.499,199.050 120.740,199.600 120.316 C 201.399 118.927,207.387 115.469,211.610 113.380 C 212.605 112.888,213.647 112.060,213.925 111.539 C 214.204 111.019,215.730 109.610,217.316 108.409 C 221.986 104.873,227.438 99.055,230.768 94.054 C 235.953 86.269,237.816 81.693,240.071 71.200 C 240.608 68.702,240.106 61.233,239.201 58.265 C 238.788 56.909,238.087 54.324,237.644 52.519 C 237.200 50.715,236.385 48.555,235.832 47.719 C 235.279 46.884,234.616 45.570,234.358 44.800 C 233.370 41.853,224.616 32.097,222.312 31.376 C 221.811 31.219,220.627 30.561,219.682 29.914 C 214.553 26.401,202.763 24.379,194.400 25.579 M191.726 50.577 C 186.816 52.112,182.450 58.420,182.295 64.200 C 182.005 75.115,191.383 81.943,202.160 78.662 C 204.415 77.975,209.200 74.199,209.200 73.106 C 209.200 72.901,209.757 71.353,210.438 69.667 C 213.368 62.409,208.957 52.734,201.726 50.558 C 199.429 49.866,193.965 49.877,191.726 50.577 M216.688 116.245 C 216.019 116.914,216.494 117.976,217.810 118.753 C 218.585 119.210,219.323 119.854,219.449 120.184 C 219.576 120.514,220.294 121.163,221.044 121.627 C 221.795 122.091,223.172 123.078,224.105 123.820 C 225.037 124.562,226.575 125.761,227.522 126.484 C 228.469 127.208,229.999 128.440,230.922 129.223 C 231.845 130.006,233.070 130.996,233.644 131.423 C 234.218 131.850,235.748 132.995,237.044 133.966 C 240.299 136.405,248.365 144.378,251.243 148.000 C 252.554 149.650,254.205 151.710,254.913 152.577 C 256.644 154.698,257.586 156.247,261.620 163.600 C 263.163 166.413,265.323 171.474,266.229 174.400 C 266.740 176.050,267.516 178.480,267.953 179.800 C 268.784 182.309,270.396 189.398,271.455 195.200 C 272.629 201.634,272.022 221.789,270.478 227.600 C 269.806 230.130,269.132 233.100,268.980 234.200 C 268.828 235.300,268.214 237.370,267.614 238.800 C 267.015 240.230,266.292 242.390,266.009 243.600 C 265.725 244.810,264.906 246.970,264.188 248.400 C 263.470 249.830,262.580 251.943,262.211 253.095 C 261.841 254.248,261.352 255.306,261.125 255.447 C 260.897 255.587,260.279 256.624,259.752 257.751 C 259.224 258.878,258.029 261.081,257.096 262.647 C 256.163 264.213,254.860 266.438,254.200 267.592 C 253.540 268.746,252.550 270.240,252.000 270.912 C 251.450 271.585,250.640 272.713,250.200 273.420 C 245.648 280.732,229.312 299.038,214.852 313.029 C 211.893 315.892,213.504 316.532,217.295 314.000 C 218.613 313.120,219.896 312.398,220.146 312.396 C 220.396 312.394,221.362 311.809,222.294 311.096 C 223.226 310.383,225.171 308.990,226.615 308.000 C 228.060 307.010,230.026 305.570,230.984 304.800 C 231.942 304.030,233.654 302.680,234.787 301.800 C 235.921 300.920,238.295 298.940,240.063 297.400 C 247.868 290.602,248.428 290.454,252.009 294.258 C 254.935 297.365,257.315 299.143,259.987 300.218 C 261.204 300.708,263.100 301.526,264.200 302.036 C 267.155 303.407,277.059 303.431,280.458 302.075 C 283.270 300.953,286.050 298.979,285.768 298.305 C 285.467 297.585,281.743 294.750,279.824 293.778 C 278.931 293.327,277.518 292.517,276.684 291.978 C 275.850 291.440,274.116 290.324,272.831 289.499 C 269.930 287.634,267.732 287.200,261.190 287.200 C 256.867 287.200,255.952 287.090,255.197 286.478 L 254.305 285.755 255.167 284.065 C 255.986 282.460,258.826 278.691,263.204 273.400 C 264.296 272.080,265.550 270.337,265.989 269.527 C 266.429 268.717,266.974 267.940,267.200 267.800 C 267.426 267.660,267.993 266.793,268.460 265.873 C 268.927 264.953,269.752 263.670,270.294 263.023 C 270.835 262.375,271.718 260.851,272.255 259.636 C 272.793 258.421,273.472 257.151,273.765 256.814 C 274.058 256.476,274.591 255.295,274.951 254.189 C 275.311 253.083,276.042 251.535,276.576 250.749 C 277.110 249.964,277.844 248.175,278.206 246.775 C 278.569 245.375,279.285 243.503,279.798 242.615 C 280.310 241.727,281.021 239.546,281.377 237.769 C 281.733 235.991,282.369 233.631,282.790 232.522 C 285.454 225.513,285.431 193.396,282.757 185.698 C 282.318 184.434,281.685 181.968,281.349 180.219 C 281.013 178.469,280.314 176.309,279.796 175.419 C 279.277 174.528,278.635 172.900,278.370 171.800 C 278.104 170.700,277.283 168.703,276.544 167.362 C 275.805 166.020,275.200 164.663,275.200 164.345 C 275.200 163.695,271.796 158.041,270.296 156.200 C 269.758 155.540,269.089 154.550,268.809 154.000 C 268.167 152.742,266.248 150.082,264.300 147.748 C 261.517 144.414,262.704 142.084,269.200 138.133 C 270.190 137.531,271.630 136.546,272.400 135.944 C 273.170 135.343,274.340 134.726,275.000 134.575 C 275.660 134.424,277.404 133.781,278.875 133.146 C 285.250 130.397,297.536 130.270,305.317 132.872 C 310.529 134.614,313.172 133.942,311.484 131.304 C 311.095 130.697,310.258 129.210,309.624 128.000 C 304.637 118.490,288.475 113.755,275.319 117.949 C 273.074 118.665,270.594 119.687,269.807 120.221 C 269.021 120.754,267.873 121.452,267.256 121.771 C 264.175 123.364,258.238 129.651,256.653 132.997 C 254.938 136.620,253.834 136.756,249.561 133.872 C 248.199 132.953,246.512 131.840,245.814 131.400 C 245.115 130.960,244.016 130.181,243.372 129.670 C 241.798 128.421,238.181 126.208,236.140 125.245 C 235.226 124.815,233.714 123.908,232.780 123.231 C 231.845 122.554,230.852 122.000,230.574 122.000 C 230.296 122.000,228.748 121.305,227.134 120.455 C 225.520 119.606,223.480 118.677,222.600 118.392 C 221.720 118.107,220.550 117.551,220.000 117.156 C 218.824 116.311,217.097 115.836,216.688 116.245 M246.852 201.398 C 245.671 201.953,243.317 202.762,241.620 203.195 C 239.923 203.628,237.559 204.422,236.367 204.959 C 235.175 205.495,232.691 206.236,230.846 206.605 C 229.001 206.973,226.661 207.632,225.646 208.068 C 224.631 208.505,221.820 209.119,219.400 209.434 C 216.980 209.749,213.726 210.286,212.168 210.628 C 205.850 212.016,185.133 210.429,177.796 207.996 C 176.474 207.558,173.565 206.851,171.330 206.425 C 169.096 205.999,166.553 205.286,165.679 204.840 C 161.350 202.632,154.095 203.129,157.315 205.413 C 159.196 206.748,163.068 208.911,164.490 209.422 C 165.309 209.716,166.654 210.416,167.479 210.976 C 168.304 211.536,169.883 212.295,170.989 212.661 C 172.095 213.027,173.630 213.742,174.400 214.249 C 175.170 214.756,177.060 215.443,178.600 215.774 C 180.140 216.106,182.480 216.816,183.800 217.351 C 185.341 217.975,187.775 218.488,190.600 218.784 C 193.020 219.037,195.869 219.414,196.931 219.622 C 199.463 220.118,206.874 220.105,210.293 219.600 C 219.003 218.311,220.954 217.941,222.070 217.364 C 222.750 217.012,224.985 216.309,227.037 215.801 C 229.090 215.293,231.309 214.492,231.969 214.022 C 232.629 213.552,234.201 212.812,235.463 212.378 C 236.725 211.944,238.217 211.287,238.779 210.917 C 239.673 210.328,243.294 208.376,247.000 206.483 C 247.660 206.146,248.845 205.315,249.634 204.635 C 250.423 203.956,251.651 203.086,252.364 202.702 C 256.022 200.730,250.869 199.511,246.852 201.398 " stroke="none" fill="#e5eaec" fill-rule="evenodd"></path><path id="path1" d="M7.200 7.200 C 6.403 7.997,6.400 8.575,6.338 191.500 C 6.303 292.425,6.258 378.931,6.238 383.735 C 6.200 392.453,6.202 392.471,7.144 393.235 C 8.071 393.986,11.597 394.000,200.244 394.000 L 392.400 394.000 393.214 393.186 L 394.028 392.372 393.773 200.086 C 393.518 8.212,393.516 7.798,392.714 7.100 C 391.364 5.923,8.378 6.022,7.200 7.200 M213.082 27.105 C 215.768 28.003,218.738 29.267,219.682 29.914 C 220.627 30.561,221.811 31.219,222.312 31.376 C 224.616 32.097,233.370 41.853,234.358 44.800 C 234.616 45.570,235.279 46.884,235.832 47.719 C 236.385 48.555,237.200 50.715,237.644 52.519 C 238.087 54.324,238.788 56.909,239.201 58.265 C 240.106 61.233,240.608 68.702,240.071 71.200 C 237.816 81.693,235.953 86.269,230.768 94.054 C 227.438 99.055,221.986 104.873,217.316 108.409 C 215.730 109.610,214.204 111.019,213.925 111.539 C 213.647 112.060,212.605 112.888,211.610 113.380 C 207.387 115.469,201.399 118.927,199.600 120.316 C 199.050 120.740,197.790 121.499,196.800 122.001 C 195.810 122.504,194.443 123.339,193.762 123.858 C 193.081 124.376,192.337 124.800,192.108 124.800 C 191.727 124.800,188.366 126.873,185.400 128.937 C 184.740 129.396,182.490 130.932,180.400 132.350 C 176.724 134.845,175.498 135.780,171.895 138.839 C 170.963 139.630,169.881 140.449,169.492 140.659 C 168.171 141.371,157.505 152.188,156.139 154.200 C 155.393 155.300,153.980 157.190,152.999 158.400 C 152.018 159.610,150.742 161.590,150.163 162.800 C 149.583 164.010,148.794 165.360,148.407 165.800 C 147.577 166.746,145.028 172.400,143.898 175.800 C 143.459 177.120,142.604 179.550,141.998 181.200 C 141.392 182.850,140.774 185.100,140.625 186.200 C 140.477 187.300,139.825 190.940,139.178 194.289 C 137.476 203.090,137.498 213.823,139.234 221.000 C 139.447 221.880,139.970 224.867,140.398 227.637 C 140.825 230.408,141.559 233.558,142.029 234.637 C 142.499 235.717,143.227 237.823,143.648 239.318 C 144.069 240.814,144.841 242.704,145.365 243.518 C 145.888 244.333,146.541 245.720,146.815 246.600 C 147.089 247.480,147.816 248.920,148.430 249.800 C 149.045 250.680,149.739 252.141,149.974 253.046 C 150.210 253.952,150.941 255.371,151.601 256.201 C 152.260 257.031,152.800 257.859,152.800 258.041 C 152.800 258.223,153.316 258.963,153.946 259.686 C 154.577 260.409,155.501 261.810,156.000 262.800 C 156.499 263.790,157.378 265.164,157.954 265.853 C 158.529 266.542,159.810 268.133,160.800 269.390 C 165.077 274.817,171.478 282.467,174.516 285.783 C 180.117 291.895,184.488 296.557,185.594 297.600 C 186.177 298.150,187.304 299.410,188.099 300.400 C 188.893 301.390,191.383 304.090,193.631 306.400 C 197.494 310.369,201.053 314.465,203.125 317.324 C 203.633 318.026,204.488 319.060,205.025 319.622 C 205.561 320.184,206.000 320.825,206.000 321.047 C 206.000 321.269,206.710 322.628,207.578 324.066 C 208.445 325.505,209.285 327.203,209.444 327.841 C 209.602 328.478,210.333 330.255,211.066 331.789 C 211.800 333.323,212.400 334.909,212.400 335.314 C 212.400 335.718,212.750 337.703,213.178 339.725 C 215.650 351.401,215.617 349.145,213.426 357.144 C 212.862 359.204,212.400 361.490,212.400 362.225 C 212.400 364.594,210.733 366.932,210.142 365.393 C 210.017 365.066,209.879 360.434,209.837 355.099 C 209.777 347.525,209.622 344.962,209.127 343.400 C 208.170 340.378,205.577 334.286,204.935 333.551 C 204.623 333.194,203.880 332.004,203.284 330.908 C 202.688 329.812,201.532 327.919,200.716 326.702 C 199.221 324.472,183.401 308.377,180.800 306.440 C 180.030 305.867,178.320 304.251,177.000 302.850 C 169.193 294.566,165.877 291.605,164.400 291.602 C 164.070 291.602,162.028 293.399,159.863 295.595 C 156.769 298.734,155.569 299.684,154.263 300.034 C 153.348 300.279,151.430 301.046,150.000 301.739 C 147.424 302.988,147.342 303.000,141.200 302.996 L 135.000 302.992 131.674 301.421 C 127.752 299.568,127.135 298.798,128.534 297.497 C 130.205 295.943,135.213 292.769,138.820 290.979 C 139.820 290.482,140.900 289.761,141.220 289.376 C 142.419 287.929,144.421 287.491,150.600 287.322 C 160.521 287.051,160.528 287.034,154.011 279.600 C 151.235 276.433,148.859 273.576,147.200 271.409 C 142.618 265.426,141.305 263.558,140.551 261.949 C 140.073 260.931,139.467 259.965,139.203 259.802 C 138.940 259.639,138.207 258.402,137.575 257.053 C 136.943 255.704,136.068 253.970,135.631 253.200 C 134.119 250.538,132.008 245.792,131.361 243.600 C 131.003 242.390,130.281 240.551,129.755 239.513 C 129.229 238.475,128.454 235.865,128.032 233.713 C 127.609 231.561,126.989 229.153,126.652 228.362 C 126.072 226.997,125.758 224.982,124.810 216.555 C 123.764 207.250,124.792 187.002,126.602 181.268 C 127.134 179.581,127.845 176.893,128.180 175.296 C 128.516 173.699,129.235 171.516,129.777 170.445 C 130.320 169.374,130.982 167.632,131.248 166.575 C 132.074 163.294,136.657 154.839,140.447 149.600 C 143.640 145.189,144.250 143.593,143.294 142.159 C 142.773 141.378,138.543 138.094,137.150 137.389 C 136.408 137.014,135.422 136.362,134.961 135.940 C 134.207 135.253,130.155 133.607,125.800 132.219 C 119.847 130.321,106.657 130.763,101.608 133.029 C 99.090 134.158,96.936 134.208,96.274 133.150 C 95.046 131.188,99.163 124.805,103.536 121.892 C 104.781 121.062,106.325 120.038,106.966 119.616 C 107.608 119.193,108.860 118.725,109.750 118.575 C 110.639 118.425,112.503 117.874,113.892 117.351 C 117.917 115.836,125.842 115.953,130.800 117.600 C 132.787 118.260,134.655 118.800,134.952 118.800 C 135.249 118.800,136.551 119.520,137.846 120.399 C 139.141 121.279,140.391 121.999,140.624 121.999 C 140.857 122.000,141.997 122.810,143.157 123.800 C 144.316 124.790,145.404 125.600,145.574 125.600 C 145.744 125.600,147.085 127.383,148.555 129.562 C 152.191 134.956,152.960 135.053,157.590 130.712 C 161.899 126.672,168.604 121.489,172.800 118.954 C 173.790 118.356,174.960 117.557,175.400 117.178 C 175.840 116.798,177.132 116.022,178.272 115.452 C 179.411 114.882,180.459 114.228,180.601 113.999 C 180.742 113.770,181.880 113.043,183.129 112.384 C 184.378 111.725,186.750 110.388,188.400 109.413 C 190.050 108.438,192.390 107.083,193.600 106.403 C 194.810 105.723,197.150 104.282,198.800 103.200 C 200.450 102.119,202.610 100.779,203.600 100.223 C 204.590 99.667,206.390 98.402,207.600 97.413 C 208.810 96.424,210.724 94.901,211.853 94.029 C 213.630 92.657,216.789 89.212,220.133 85.000 C 222.121 82.494,224.791 77.621,225.201 75.749 C 225.436 74.677,225.994 72.729,226.441 71.421 C 227.594 68.044,227.873 61.709,226.997 58.800 C 226.632 57.590,225.980 55.307,225.547 53.727 C 223.803 47.358,216.730 39.289,211.400 37.590 C 210.520 37.309,208.752 36.532,207.470 35.863 C 204.597 34.363,195.545 33.830,191.800 34.941 C 183.001 37.552,175.942 41.862,172.201 46.908 C 171.348 48.059,170.268 49.450,169.801 50.000 C 165.508 55.057,163.576 73.285,166.973 76.682 C 168.050 77.759,168.614 79.950,167.977 80.575 C 167.348 81.192,166.000 79.397,166.000 77.942 C 166.000 77.036,165.693 76.592,164.636 75.968 C 162.987 74.995,162.986 74.993,161.771 69.045 C 160.689 63.748,160.522 58.896,161.341 56.550 C 161.639 55.698,162.110 53.778,162.389 52.285 C 162.676 50.749,163.334 48.925,163.905 48.085 C 164.459 47.268,165.246 45.825,165.652 44.877 C 167.591 40.358,174.334 33.782,179.689 31.188 C 181.032 30.537,182.417 29.747,182.766 29.433 C 187.325 25.320,203.929 24.046,213.082 27.105 M201.726 50.558 C 208.957 52.734,213.368 62.409,210.438 69.667 C 209.757 71.353,209.200 72.901,209.200 73.106 C 209.200 74.199,204.415 77.975,202.160 78.662 C 193.719 81.232,186.707 78.195,183.543 70.600 C 178.540 58.589,189.237 46.799,201.726 50.558 M220.000 117.156 C 220.550 117.551,221.720 118.107,222.600 118.392 C 223.480 118.677,225.520 119.606,227.134 120.455 C 228.748 121.305,230.296 122.000,230.574 122.000 C 230.852 122.000,231.845 122.554,232.780 123.231 C 233.714 123.908,235.226 124.815,236.140 125.245 C 238.181 126.208,241.798 128.421,243.372 129.670 C 244.016 130.181,245.115 130.960,245.814 131.400 C 246.512 131.840,248.199 132.953,249.561 133.872 C 253.834 136.756,254.938 136.620,256.653 132.997 C 258.238 129.651,264.175 123.364,267.256 121.771 C 267.873 121.452,269.021 120.754,269.807 120.221 C 281.130 112.537,303.842 116.974,309.624 128.000 C 310.258 129.210,311.095 130.697,311.484 131.304 C 313.172 133.942,310.529 134.614,305.317 132.872 C 297.536 130.270,285.250 130.397,278.875 133.146 C 277.404 133.781,275.660 134.424,275.000 134.575 C 274.340 134.726,273.170 135.343,272.400 135.944 C 271.630 136.546,270.190 137.531,269.200 138.133 C 262.704 142.084,261.517 144.414,264.300 147.748 C 266.248 150.082,268.167 152.742,268.809 154.000 C 269.089 154.550,269.758 155.540,270.296 156.200 C 271.796 158.041,275.200 163.695,275.200 164.345 C 275.200 164.663,275.805 166.020,276.544 167.362 C 277.283 168.703,278.104 170.700,278.370 171.800 C 278.635 172.900,279.277 174.528,279.796 175.419 C 280.314 176.309,281.013 178.469,281.349 180.219 C 281.685 181.968,282.318 184.434,282.757 185.698 C 285.431 193.396,285.454 225.513,282.790 232.522 C 282.369 233.631,281.733 235.991,281.377 237.769 C 281.021 239.546,280.310 241.727,279.798 242.615 C 279.285 243.503,278.569 245.375,278.206 246.775 C 277.844 248.175,277.110 249.964,276.576 250.749 C 276.042 251.535,275.311 253.083,274.951 254.189 C 274.591 255.295,274.058 256.476,273.765 256.814 C 273.472 257.151,272.793 258.421,272.255 259.636 C 271.718 260.851,270.835 262.375,270.294 263.023 C 269.752 263.670,268.927 264.953,268.460 265.873 C 267.993 266.793,267.426 267.660,267.200 267.800 C 266.974 267.940,266.429 268.717,265.989 269.527 C 265.550 270.337,264.296 272.080,263.204 273.400 C 258.826 278.691,255.986 282.460,255.167 284.065 L 254.305 285.755 255.197 286.478 C 255.952 287.090,256.867 287.200,261.190 287.200 C 267.732 287.200,269.930 287.634,272.831 289.499 C 274.116 290.324,275.850 291.440,276.684 291.978 C 277.518 292.517,278.931 293.327,279.824 293.778 C 281.743 294.750,285.467 297.585,285.768 298.305 C 286.050 298.979,283.270 300.953,280.458 302.075 C 277.059 303.431,267.155 303.407,264.200 302.036 C 263.100 301.526,261.204 300.708,259.987 300.218 C 257.315 299.143,254.935 297.365,252.009 294.258 C 248.428 290.454,247.868 290.602,240.063 297.400 C 238.295 298.940,235.921 300.920,234.787 301.800 C 233.654 302.680,231.942 304.030,230.984 304.800 C 230.026 305.570,228.060 307.010,226.615 308.000 C 225.171 308.990,223.226 310.383,222.294 311.096 C 221.362 311.809,220.396 312.394,220.146 312.396 C 219.896 312.398,218.613 313.120,217.295 314.000 C 213.504 316.532,211.893 315.892,214.852 313.029 C 229.312 299.038,245.648 280.732,250.200 273.420 C 250.640 272.713,251.450 271.585,252.000 270.912 C 252.550 270.240,253.540 268.746,254.200 267.592 C 254.860 266.438,256.163 264.213,257.096 262.647 C 258.029 261.081,259.224 258.878,259.752 257.751 C 260.279 256.624,260.897 255.587,261.125 255.447 C 261.352 255.306,261.841 254.248,262.211 253.095 C 262.580 251.943,263.470 249.830,264.188 248.400 C 264.906 246.970,265.725 244.810,266.009 243.600 C 266.292 242.390,267.015 240.230,267.614 238.800 C 268.214 237.370,268.828 235.300,268.980 234.200 C 269.132 233.100,269.806 230.130,270.478 227.600 C 272.022 221.789,272.629 201.634,271.455 195.200 C 270.396 189.398,268.784 182.309,267.953 179.800 C 267.516 178.480,266.740 176.050,266.229 174.400 C 265.323 171.474,263.163 166.413,261.620 163.600 C 257.586 156.247,256.644 154.698,254.913 152.577 C 254.205 151.710,252.554 149.650,251.243 148.000 C 248.365 144.378,240.299 136.405,237.044 133.966 C 235.748 132.995,234.218 131.850,233.644 131.423 C 233.070 130.996,231.845 130.006,230.922 129.223 C 229.999 128.440,228.469 127.208,227.522 126.484 C 226.575 125.761,225.037 124.562,224.105 123.820 C 223.172 123.078,221.795 122.091,221.044 121.627 C 220.294 121.163,219.576 120.514,219.449 120.184 C 219.323 119.854,218.585 119.210,217.810 118.753 C 216.494 117.976,216.019 116.914,216.688 116.245 C 217.097 115.836,218.824 116.311,220.000 117.156 M253.526 201.302 C 253.613 201.759,253.208 202.246,252.364 202.702 C 251.651 203.086,250.423 203.956,249.634 204.635 C 248.845 205.315,247.660 206.146,247.000 206.483 C 243.294 208.376,239.673 210.328,238.779 210.917 C 238.217 211.287,236.725 211.944,235.463 212.378 C 234.201 212.812,232.629 213.552,231.969 214.022 C 231.309 214.492,229.090 215.293,227.037 215.801 C 224.985 216.309,222.750 217.012,222.070 217.364 C 220.954 217.941,219.003 218.311,210.293 219.600 C 206.874 220.105,199.463 220.118,196.931 219.622 C 195.869 219.414,193.020 219.037,190.600 218.784 C 187.775 218.488,185.341 217.975,183.800 217.351 C 182.480 216.816,180.140 216.106,178.600 215.774 C 177.060 215.443,175.170 214.756,174.400 214.249 C 173.630 213.742,172.095 213.027,170.989 212.661 C 169.883 212.295,168.304 211.536,167.479 210.976 C 166.654 210.416,165.309 209.716,164.490 209.422 C 163.068 208.911,159.196 206.748,157.315 205.413 C 154.095 203.129,161.350 202.632,165.679 204.840 C 166.553 205.286,169.096 205.999,171.330 206.425 C 173.565 206.851,176.474 207.558,177.796 207.996 C 185.133 210.429,205.850 212.016,212.168 210.628 C 213.726 210.286,216.980 209.749,219.400 209.434 C 221.820 209.119,224.631 208.505,225.646 208.068 C 226.661 207.632,229.001 206.973,230.846 206.605 C 232.691 206.236,235.175 205.495,236.367 204.959 C 237.559 204.422,239.923 203.628,241.620 203.195 C 243.317 202.762,245.671 201.953,246.852 201.398 C 249.485 200.161,253.298 200.106,253.526 201.302 " stroke="none" fill="#049dd1" fill-rule="evenodd"></path></g></svg>